<svg xmlns="http://www.w3.org/2000/svg" viewBox="0 0 200 200">
  <!-- Fond -->
  <rect width="200" height="200" fill="#f5f5f5"/>
  
  <!-- Planche à découper -->
  <rect x="20" y="120" width="160" height="60" rx="5" fill="#8B4513"/>
  
  <!-- Ustensiles -->
  <!-- Cuillère en bois -->
  <rect x="40" y="30" width="10" height="80" rx="5" fill="#A0522D"/>
  <ellipse cx="45" cy="30" rx="15" ry="10" fill="#A0522D"/>
  
  <!-- Spatule -->
  <rect x="70" y="30" width="8" height="80" rx="4" fill="#A0522D"/>
  <rect x="60" y="30" width="28" height="10" rx="2" fill="#A0522D"/>
  
  <!-- Fouet -->
  <rect x="110" y="30" width="6" height="70" rx="3" fill="#A0522D"/>
  <path d="M110,30 Q120,50 130,30 Q140,10 150,30" stroke="#888" fill="none" stroke-width="2"/>
  <path d="M110,35 Q120,55 130,35 Q140,15 150,35" stroke="#888" fill="none" stroke-width="2"/>
  <path d="M110,40 Q120,60 130,40 Q140,20 150,40" stroke="#888" fill="none" stroke-width="2"/>
  
  <!-- Couteau -->
  <rect x="150" y="40" width="6" height="60" rx="2" fill="#A0522D"/>
  <polygon points="150,40 170,30 170,50 150,40" fill="#ccc"/>
  
  <!-- Texte -->
  <text x="100" y="170" font-family="Arial" font-size="12" text-anchor="middle" fill="#333">Ensemble de Cuisine</text>
</svg> 